<mxfile host="app.diagrams.net" modified="2021-01-06T18:35:11.096Z" agent="5.0 (Windows)" etag="IlbYuTMCKzol9eNb8i6j" version="14.1.8" type="github">
  <diagram id="E8qc7Ti0PEUZ3x-3uVXx" name="Page-1">
    <mxGraphModel dx="74" dy="833" grid="1" gridSize="10" guides="1" tooltips="1" connect="1" arrows="1" fold="1" page="1" pageScale="1" pageWidth="850" pageHeight="1100" math="0" shadow="0">
      <root>
        <mxCell id="0" />
        <mxCell id="1" parent="0" />
        <mxCell id="voar_PhkFG0bLgyoQQv7-1" value="" style="strokeWidth=1;shadow=0;dashed=0;align=center;html=1;shape=mxgraph.mockup.containers.browserWindow;rSize=0;strokeColor=#666666;strokeColor2=#008cff;strokeColor3=#c4c4c4;mainText=,;recursiveResize=0;" vertex="1" parent="1">
          <mxGeometry x="880" y="40" width="990" height="1080" as="geometry" />
        </mxCell>
        <mxCell id="voar_PhkFG0bLgyoQQv7-2" value="" style="rounded=0;whiteSpace=wrap;html=1;align=left;fillColor=#f5f5f5;strokeColor=#666666;fontColor=#333333;" vertex="1" parent="voar_PhkFG0bLgyoQQv7-1">
          <mxGeometry y="230" width="990" height="730" as="geometry" />
        </mxCell>
        <mxCell id="voar_PhkFG0bLgyoQQv7-3" value="Page 1" style="strokeWidth=1;shadow=0;dashed=0;align=center;html=1;shape=mxgraph.mockup.containers.anchor;fontSize=17;fontColor=#666666;align=left;" vertex="1" parent="voar_PhkFG0bLgyoQQv7-1">
          <mxGeometry x="60" y="12" width="110" height="26" as="geometry" />
        </mxCell>
        <mxCell id="voar_PhkFG0bLgyoQQv7-4" value="http://www.hermitapp.me" style="strokeWidth=1;shadow=0;dashed=0;align=center;html=1;shape=mxgraph.mockup.containers.anchor;rSize=0;fontSize=17;fontColor=#666666;align=left;" vertex="1" parent="voar_PhkFG0bLgyoQQv7-1">
          <mxGeometry x="130" y="60" width="250" height="26" as="geometry" />
        </mxCell>
        <mxCell id="voar_PhkFG0bLgyoQQv7-5" value="" style="rounded=0;whiteSpace=wrap;html=1;fillColor=#f5f5f5;strokeColor=#666666;fontColor=#333333;" vertex="1" parent="voar_PhkFG0bLgyoQQv7-1">
          <mxGeometry y="110" width="990" height="120" as="geometry" />
        </mxCell>
        <mxCell id="voar_PhkFG0bLgyoQQv7-6" value="" style="verticalLabelPosition=bottom;html=1;verticalAlign=top;align=center;strokeColor=none;fillColor=#00BEF2;shape=mxgraph.azure.user;" vertex="1" parent="voar_PhkFG0bLgyoQQv7-1">
          <mxGeometry x="30" y="122.5" width="100" height="95" as="geometry" />
        </mxCell>
        <mxCell id="voar_PhkFG0bLgyoQQv7-7" value="Nilan Patel" style="text;html=1;strokeColor=none;fillColor=none;align=center;verticalAlign=middle;whiteSpace=wrap;rounded=0;" vertex="1" parent="voar_PhkFG0bLgyoQQv7-1">
          <mxGeometry x="150" y="130" width="70" height="20" as="geometry" />
        </mxCell>
        <mxCell id="voar_PhkFG0bLgyoQQv7-8" value="5 Cimmaron Street" style="text;html=1;strokeColor=none;fillColor=none;align=center;verticalAlign=middle;whiteSpace=wrap;rounded=0;" vertex="1" parent="voar_PhkFG0bLgyoQQv7-1">
          <mxGeometry x="150" y="150" width="110" height="20" as="geometry" />
        </mxCell>
        <mxCell id="voar_PhkFG0bLgyoQQv7-9" value="Log Out" style="rounded=1;fillColor=#e51400;align=center;strokeColor=#B20000;html=1;fontSize=12;fontColor=#ffffff;" vertex="1" parent="voar_PhkFG0bLgyoQQv7-1">
          <mxGeometry x="150" y="190" width="52" height="20" as="geometry" />
        </mxCell>
        <mxCell id="voar_PhkFG0bLgyoQQv7-10" value="" style="shape=rect;fillColor=#e0e0e0;strokeColor=none;" vertex="1" parent="voar_PhkFG0bLgyoQQv7-1">
          <mxGeometry x="680" y="181" width="294" height="38" as="geometry" />
        </mxCell>
        <mxCell id="voar_PhkFG0bLgyoQQv7-11" value="" style="html=1;strokeWidth=1;shadow=0;dashed=0;shape=mxgraph.ios7ui.marginRect;rx=3;ry=3;rectMargin=5;strokeColor=none;" vertex="1" parent="voar_PhkFG0bLgyoQQv7-10">
          <mxGeometry width="294" height="38" as="geometry" />
        </mxCell>
        <mxCell id="voar_PhkFG0bLgyoQQv7-12" value="Find your fave..." style="shape=mxgraph.ios7.icons.looking_glass;strokeColor=#e0e0e0;fillColor=none;labelPosition=right;verticalLabelPosition=middle;align=left;verticalAlign=middle;fontSize=12;fontStyle=0;spacingTop=2;fontColor=#0D0D0D;" vertex="1" parent="voar_PhkFG0bLgyoQQv7-10">
          <mxGeometry x="0.5" y="0.5" width="6" height="6" relative="1" as="geometry">
            <mxPoint x="-37" y="-3" as="offset" />
          </mxGeometry>
        </mxCell>
        <mxCell id="voar_PhkFG0bLgyoQQv7-13" value="" style="verticalLabelPosition=bottom;shadow=0;dashed=0;align=center;html=1;verticalAlign=top;strokeWidth=1;shape=mxgraph.mockup.misc.shoppingCart;strokeColor=#6c8ebf;fillColor=#dae8fc;" vertex="1" parent="voar_PhkFG0bLgyoQQv7-1">
          <mxGeometry x="924" y="120" width="50" height="50" as="geometry" />
        </mxCell>
        <mxCell id="voar_PhkFG0bLgyoQQv7-14" value="" style="rounded=0;whiteSpace=wrap;html=1;fillColor=#f5f5f5;strokeColor=#666666;fontColor=#333333;" vertex="1" parent="voar_PhkFG0bLgyoQQv7-1">
          <mxGeometry y="960" width="990" height="120" as="geometry" />
        </mxCell>
        <mxCell id="voar_PhkFG0bLgyoQQv7-15" value="Total: $0.00" style="text;html=1;strokeColor=#6c8ebf;fillColor=#dae8fc;align=center;verticalAlign=middle;whiteSpace=wrap;rounded=0;" vertex="1" parent="voar_PhkFG0bLgyoQQv7-1">
          <mxGeometry x="840" y="135" width="70" height="20" as="geometry" />
        </mxCell>
        <mxCell id="voar_PhkFG0bLgyoQQv7-16" value="" style="rounded=0;whiteSpace=wrap;html=1;fillColor=#f5f5f5;strokeColor=#666666;fontColor=#333333;" vertex="1" parent="voar_PhkFG0bLgyoQQv7-1">
          <mxGeometry y="250" width="180" height="690" as="geometry" />
        </mxCell>
        <mxCell id="voar_PhkFG0bLgyoQQv7-17" value="" style="rounded=0;whiteSpace=wrap;html=1;fillColor=#f5f5f5;strokeColor=#666666;fontColor=#333333;" vertex="1" parent="voar_PhkFG0bLgyoQQv7-1">
          <mxGeometry x="195" y="250" width="645" height="690" as="geometry" />
        </mxCell>
        <mxCell id="voar_PhkFG0bLgyoQQv7-18" value="Text" style="text;html=1;strokeColor=none;fillColor=none;align=center;verticalAlign=middle;whiteSpace=wrap;rounded=0;" vertex="1" parent="voar_PhkFG0bLgyoQQv7-1">
          <mxGeometry y="280" width="180" height="40" as="geometry" />
        </mxCell>
        <mxCell id="voar_PhkFG0bLgyoQQv7-19" value="Text" style="text;html=1;strokeColor=none;fillColor=none;align=center;verticalAlign=middle;whiteSpace=wrap;rounded=0;" vertex="1" parent="voar_PhkFG0bLgyoQQv7-1">
          <mxGeometry y="340" width="180" height="40" as="geometry" />
        </mxCell>
        <mxCell id="voar_PhkFG0bLgyoQQv7-20" value="Text" style="text;html=1;strokeColor=none;fillColor=none;align=center;verticalAlign=middle;whiteSpace=wrap;rounded=0;" vertex="1" parent="voar_PhkFG0bLgyoQQv7-1">
          <mxGeometry y="390" width="180" height="40" as="geometry" />
        </mxCell>
        <mxCell id="voar_PhkFG0bLgyoQQv7-21" value="Text" style="text;html=1;strokeColor=none;fillColor=none;align=center;verticalAlign=middle;whiteSpace=wrap;rounded=0;" vertex="1" parent="voar_PhkFG0bLgyoQQv7-1">
          <mxGeometry y="450" width="180" height="40" as="geometry" />
        </mxCell>
        <mxCell id="voar_PhkFG0bLgyoQQv7-22" value="Text" style="text;html=1;strokeColor=none;fillColor=none;align=center;verticalAlign=middle;whiteSpace=wrap;rounded=0;" vertex="1" parent="voar_PhkFG0bLgyoQQv7-1">
          <mxGeometry y="510" width="180" height="40" as="geometry" />
        </mxCell>
        <mxCell id="voar_PhkFG0bLgyoQQv7-23" value="Text" style="text;html=1;strokeColor=none;fillColor=none;align=center;verticalAlign=middle;whiteSpace=wrap;rounded=0;" vertex="1" parent="voar_PhkFG0bLgyoQQv7-1">
          <mxGeometry y="575" width="180" height="45" as="geometry" />
        </mxCell>
        <mxCell id="voar_PhkFG0bLgyoQQv7-24" value="Text" style="text;html=1;strokeColor=none;fillColor=none;align=center;verticalAlign=middle;whiteSpace=wrap;rounded=0;" vertex="1" parent="voar_PhkFG0bLgyoQQv7-1">
          <mxGeometry y="630" width="180" height="40" as="geometry" />
        </mxCell>
        <mxCell id="voar_PhkFG0bLgyoQQv7-25" value="" style="verticalLabelPosition=bottom;shadow=0;dashed=0;align=center;html=1;verticalAlign=top;strokeWidth=1;shape=mxgraph.mockup.graphics.simpleIcon;strokeColor=#999999;fillColor=#ffffff;" vertex="1" parent="voar_PhkFG0bLgyoQQv7-1">
          <mxGeometry x="220" y="790" width="115" height="120" as="geometry" />
        </mxCell>
        <mxCell id="voar_PhkFG0bLgyoQQv7-26" value="" style="verticalLabelPosition=bottom;shadow=0;dashed=0;align=center;html=1;verticalAlign=top;strokeWidth=1;shape=mxgraph.mockup.graphics.simpleIcon;strokeColor=#999999;fillColor=#ffffff;" vertex="1" parent="voar_PhkFG0bLgyoQQv7-1">
          <mxGeometry x="437.5" y="790" width="115" height="120" as="geometry" />
        </mxCell>
        <mxCell id="voar_PhkFG0bLgyoQQv7-27" value="" style="verticalLabelPosition=bottom;shadow=0;dashed=0;align=center;html=1;verticalAlign=top;strokeWidth=1;shape=mxgraph.mockup.graphics.simpleIcon;strokeColor=#999999;fillColor=#ffffff;" vertex="1" parent="voar_PhkFG0bLgyoQQv7-1">
          <mxGeometry x="680" y="790" width="115" height="120" as="geometry" />
        </mxCell>
        <mxCell id="voar_PhkFG0bLgyoQQv7-28" value="" style="verticalLabelPosition=bottom;shadow=0;dashed=0;align=center;html=1;verticalAlign=top;strokeWidth=1;shape=mxgraph.mockup.graphics.simpleIcon;strokeColor=#999999;fillColor=#ffffff;" vertex="1" parent="voar_PhkFG0bLgyoQQv7-1">
          <mxGeometry x="220" y="610" width="115" height="120" as="geometry" />
        </mxCell>
        <mxCell id="voar_PhkFG0bLgyoQQv7-29" value="" style="verticalLabelPosition=bottom;shadow=0;dashed=0;align=center;html=1;verticalAlign=top;strokeWidth=1;shape=mxgraph.mockup.graphics.simpleIcon;strokeColor=#999999;fillColor=#ffffff;" vertex="1" parent="voar_PhkFG0bLgyoQQv7-1">
          <mxGeometry x="437.5" y="610" width="115" height="120" as="geometry" />
        </mxCell>
        <mxCell id="voar_PhkFG0bLgyoQQv7-30" value="" style="verticalLabelPosition=bottom;shadow=0;dashed=0;align=center;html=1;verticalAlign=top;strokeWidth=1;shape=mxgraph.mockup.graphics.simpleIcon;strokeColor=#999999;fillColor=#ffffff;" vertex="1" parent="voar_PhkFG0bLgyoQQv7-1">
          <mxGeometry x="680" y="610" width="115" height="120" as="geometry" />
        </mxCell>
        <mxCell id="voar_PhkFG0bLgyoQQv7-31" value="" style="verticalLabelPosition=bottom;shadow=0;dashed=0;align=center;html=1;verticalAlign=top;strokeWidth=1;shape=mxgraph.mockup.graphics.simpleIcon;strokeColor=#999999;fillColor=#ffffff;" vertex="1" parent="voar_PhkFG0bLgyoQQv7-1">
          <mxGeometry x="220" y="430" width="115" height="120" as="geometry" />
        </mxCell>
        <mxCell id="voar_PhkFG0bLgyoQQv7-32" value="" style="verticalLabelPosition=bottom;shadow=0;dashed=0;align=center;html=1;verticalAlign=top;strokeWidth=1;shape=mxgraph.mockup.graphics.simpleIcon;strokeColor=#999999;fillColor=#ffffff;" vertex="1" parent="voar_PhkFG0bLgyoQQv7-1">
          <mxGeometry x="437.5" y="430" width="115" height="120" as="geometry" />
        </mxCell>
        <mxCell id="voar_PhkFG0bLgyoQQv7-33" value="" style="verticalLabelPosition=bottom;shadow=0;dashed=0;align=center;html=1;verticalAlign=top;strokeWidth=1;shape=mxgraph.mockup.graphics.simpleIcon;strokeColor=#999999;fillColor=#ffffff;" vertex="1" parent="voar_PhkFG0bLgyoQQv7-1">
          <mxGeometry x="680" y="430" width="115" height="120" as="geometry" />
        </mxCell>
        <mxCell id="voar_PhkFG0bLgyoQQv7-34" value="" style="verticalLabelPosition=bottom;shadow=0;dashed=0;align=center;html=1;verticalAlign=top;strokeWidth=1;shape=mxgraph.mockup.graphics.simpleIcon;strokeColor=#999999;fillColor=#ffffff;" vertex="1" parent="voar_PhkFG0bLgyoQQv7-1">
          <mxGeometry x="220" y="260" width="115" height="120" as="geometry" />
        </mxCell>
        <mxCell id="voar_PhkFG0bLgyoQQv7-35" value="" style="verticalLabelPosition=bottom;shadow=0;dashed=0;align=center;html=1;verticalAlign=top;strokeWidth=1;shape=mxgraph.mockup.graphics.simpleIcon;strokeColor=#999999;fillColor=#ffffff;" vertex="1" parent="voar_PhkFG0bLgyoQQv7-1">
          <mxGeometry x="437.5" y="260" width="115" height="120" as="geometry" />
        </mxCell>
        <mxCell id="voar_PhkFG0bLgyoQQv7-36" value="" style="verticalLabelPosition=bottom;shadow=0;dashed=0;align=center;html=1;verticalAlign=top;strokeWidth=1;shape=mxgraph.mockup.graphics.simpleIcon;strokeColor=#999999;fillColor=#ffffff;" vertex="1" parent="voar_PhkFG0bLgyoQQv7-1">
          <mxGeometry x="680" y="260" width="115" height="120" as="geometry" />
        </mxCell>
        <mxCell id="voar_PhkFG0bLgyoQQv7-49" value="Add to Cart" style="rounded=1;fillColor=#0057D8;align=center;strokeColor=none;html=1;fontColor=#ffffff;fontSize=12" vertex="1" parent="voar_PhkFG0bLgyoQQv7-1">
          <mxGeometry x="245" y="380" width="65" height="20" as="geometry" />
        </mxCell>
        <mxCell id="voar_PhkFG0bLgyoQQv7-64" value="Add to Cart" style="rounded=1;fillColor=#0057D8;align=center;strokeColor=none;html=1;fontColor=#ffffff;fontSize=12" vertex="1" parent="voar_PhkFG0bLgyoQQv7-1">
          <mxGeometry x="462.5" y="380" width="65" height="20" as="geometry" />
        </mxCell>
        <mxCell id="voar_PhkFG0bLgyoQQv7-75" style="edgeStyle=orthogonalEdgeStyle;rounded=0;orthogonalLoop=1;jettySize=auto;html=1;entryX=0.5;entryY=1;entryDx=0;entryDy=0;fontColor=#0D0D0D;" edge="1" parent="voar_PhkFG0bLgyoQQv7-1" source="voar_PhkFG0bLgyoQQv7-65" target="voar_PhkFG0bLgyoQQv7-15">
          <mxGeometry relative="1" as="geometry" />
        </mxCell>
        <mxCell id="voar_PhkFG0bLgyoQQv7-65" value="Add to Cart" style="rounded=1;fillColor=#0057D8;align=center;strokeColor=none;html=1;fontColor=#ffffff;fontSize=12" vertex="1" parent="voar_PhkFG0bLgyoQQv7-1">
          <mxGeometry x="705" y="380" width="65" height="20" as="geometry" />
        </mxCell>
        <mxCell id="voar_PhkFG0bLgyoQQv7-66" value="Add to Cart" style="rounded=1;fillColor=#0057D8;align=center;strokeColor=none;html=1;fontColor=#ffffff;fontSize=12" vertex="1" parent="voar_PhkFG0bLgyoQQv7-1">
          <mxGeometry x="245" y="550" width="65" height="20" as="geometry" />
        </mxCell>
        <mxCell id="voar_PhkFG0bLgyoQQv7-67" value="Add to Cart" style="rounded=1;fillColor=#0057D8;align=center;strokeColor=none;html=1;fontColor=#ffffff;fontSize=12" vertex="1" parent="voar_PhkFG0bLgyoQQv7-1">
          <mxGeometry x="462.5" y="550" width="65" height="20" as="geometry" />
        </mxCell>
        <mxCell id="voar_PhkFG0bLgyoQQv7-68" value="Add to Cart" style="rounded=1;fillColor=#0057D8;align=center;strokeColor=none;html=1;fontColor=#ffffff;fontSize=12" vertex="1" parent="voar_PhkFG0bLgyoQQv7-1">
          <mxGeometry x="705" y="550" width="65" height="20" as="geometry" />
        </mxCell>
        <mxCell id="voar_PhkFG0bLgyoQQv7-69" value="Add to Cart" style="rounded=1;fillColor=#0057D8;align=center;strokeColor=none;html=1;fontColor=#ffffff;fontSize=12" vertex="1" parent="voar_PhkFG0bLgyoQQv7-1">
          <mxGeometry x="245" y="730" width="65" height="20" as="geometry" />
        </mxCell>
        <mxCell id="voar_PhkFG0bLgyoQQv7-70" value="Add to Cart" style="rounded=1;fillColor=#0057D8;align=center;strokeColor=none;html=1;fontColor=#ffffff;fontSize=12" vertex="1" parent="voar_PhkFG0bLgyoQQv7-1">
          <mxGeometry x="462.5" y="730" width="65" height="20" as="geometry" />
        </mxCell>
        <mxCell id="voar_PhkFG0bLgyoQQv7-71" value="Add to Cart" style="rounded=1;fillColor=#0057D8;align=center;strokeColor=none;html=1;fontColor=#ffffff;fontSize=12" vertex="1" parent="voar_PhkFG0bLgyoQQv7-1">
          <mxGeometry x="705" y="730" width="65" height="20" as="geometry" />
        </mxCell>
        <mxCell id="voar_PhkFG0bLgyoQQv7-72" value="Add to Cart" style="rounded=1;fillColor=#0057D8;align=center;strokeColor=none;html=1;fontColor=#ffffff;fontSize=12" vertex="1" parent="voar_PhkFG0bLgyoQQv7-1">
          <mxGeometry x="245" y="910" width="65" height="20" as="geometry" />
        </mxCell>
        <mxCell id="voar_PhkFG0bLgyoQQv7-73" value="Add to Cart" style="rounded=1;fillColor=#0057D8;align=center;strokeColor=none;html=1;fontColor=#ffffff;fontSize=12" vertex="1" parent="voar_PhkFG0bLgyoQQv7-1">
          <mxGeometry x="462.5" y="910" width="65" height="20" as="geometry" />
        </mxCell>
        <mxCell id="voar_PhkFG0bLgyoQQv7-74" value="Add to Cart" style="rounded=1;fillColor=#0057D8;align=center;strokeColor=none;html=1;fontColor=#ffffff;fontSize=12" vertex="1" parent="voar_PhkFG0bLgyoQQv7-1">
          <mxGeometry x="705" y="910" width="65" height="20" as="geometry" />
        </mxCell>
        <mxCell id="voar_PhkFG0bLgyoQQv7-76" value="&lt;div align=&quot;left&quot;&gt;&lt;font face=&quot;Verdana&quot;&gt;Increment total to state total&lt;/font&gt;&lt;/div&gt;" style="text;html=1;strokeColor=#82b366;fillColor=#d5e8d4;align=left;verticalAlign=middle;whiteSpace=wrap;rounded=0;gradientColor=#97d077;" vertex="1" parent="voar_PhkFG0bLgyoQQv7-1">
          <mxGeometry x="880" y="340" width="70" height="50" as="geometry" />
        </mxCell>
        <mxCell id="voar_PhkFG0bLgyoQQv7-79" style="edgeStyle=orthogonalEdgeStyle;rounded=0;orthogonalLoop=1;jettySize=auto;html=1;fontColor=#0D0D0D;" edge="1" parent="voar_PhkFG0bLgyoQQv7-1" source="voar_PhkFG0bLgyoQQv7-78" target="voar_PhkFG0bLgyoQQv7-15">
          <mxGeometry relative="1" as="geometry" />
        </mxCell>
        <mxCell id="voar_PhkFG0bLgyoQQv7-78" value="this.state.total" style="text;html=1;align=center;verticalAlign=middle;whiteSpace=wrap;rounded=0;fillColor=#d5e8d4;strokeColor=#82b366;gradientColor=#97d077;" vertex="1" parent="voar_PhkFG0bLgyoQQv7-1">
          <mxGeometry x="680" y="135" width="90" height="20" as="geometry" />
        </mxCell>
        <mxCell id="voar_PhkFG0bLgyoQQv7-80" value="&lt;div align=&quot;left&quot;&gt;&lt;font style=&quot;font-size: 16px&quot;&gt;1) &lt;/font&gt;&lt;font style=&quot;font-size: 16px&quot;&gt;Every item found in needs a price:&lt;br&gt;&lt;/font&gt;&lt;/div&gt;&lt;div style=&quot;font-size: 16px&quot; align=&quot;left&quot;&gt;&lt;ul&gt;&lt;li&gt;&lt;font style=&quot;font-size: 12px&quot;&gt;Firebase needs to have prices added to it (modify and rerun python script? make the field a number)&lt;/font&gt;&lt;br&gt;&lt;/li&gt;&lt;/ul&gt;&lt;div&gt;2) Each item will go through a flow:&lt;br&gt;&lt;/div&gt;&lt;div style=&quot;font-size: 12px&quot;&gt;&lt;ul&gt;&lt;li&gt;Items.js component needs to display the price&lt;/li&gt;&lt;ul&gt;&lt;li&gt;&lt;strike&gt;If an item has no price, maybe disable the add to cart button?&lt;/strike&gt;&lt;br&gt;&lt;/li&gt;&lt;/ul&gt;&lt;li&gt;Add to Cart click event will trigger the following:&lt;/li&gt;&lt;ul&gt;&lt;li&gt;Store the price in this.state.total (for the total highlighted in blue to the left of the cart)&lt;br&gt;&lt;/li&gt;&lt;li&gt;Push the added item to a this.state.cart array&lt;/li&gt;&lt;/ul&gt;&lt;/ul&gt;&lt;div&gt;&lt;font style=&quot;font-size: 16px&quot;&gt;3) Send this.state.cart array as a prop to the Cart page:&lt;/font&gt;&lt;br&gt;&lt;/div&gt;&lt;/div&gt;&lt;/div&gt;" style="text;html=1;strokeColor=none;fillColor=none;align=left;verticalAlign=middle;whiteSpace=wrap;rounded=0;fontSize=12;fontColor=#0D0D0D;" vertex="1" parent="1">
          <mxGeometry x="1920" y="40" width="590" height="220" as="geometry" />
        </mxCell>
        <mxCell id="voar_PhkFG0bLgyoQQv7-83" style="edgeStyle=orthogonalEdgeStyle;rounded=0;orthogonalLoop=1;jettySize=auto;html=1;entryX=0.5;entryY=0;entryDx=0;entryDy=0;fontSize=12;fontColor=#0D0D0D;" edge="1" parent="1" source="voar_PhkFG0bLgyoQQv7-81" target="voar_PhkFG0bLgyoQQv7-82">
          <mxGeometry relative="1" as="geometry" />
        </mxCell>
        <mxCell id="voar_PhkFG0bLgyoQQv7-81" value="&lt;font style=&quot;font-size: 16px&quot;&gt;Item.js&lt;/font&gt;" style="rounded=0;whiteSpace=wrap;html=1;gradientColor=none;fontSize=12;fontColor=#0D0D0D;" vertex="1" parent="1">
          <mxGeometry x="2125" y="330" width="120" height="60" as="geometry" />
        </mxCell>
        <mxCell id="voar_PhkFG0bLgyoQQv7-82" value="&lt;font style=&quot;font-size: 16px&quot;&gt;Cart.js&lt;/font&gt;" style="rounded=0;whiteSpace=wrap;html=1;gradientColor=none;fontSize=12;fontColor=#0D0D0D;" vertex="1" parent="1">
          <mxGeometry x="2125" y="490" width="120" height="60" as="geometry" />
        </mxCell>
      </root>
    </mxGraphModel>
  </diagram>
</mxfile>
